# xmcd
# 
# Track frame offsets:
#     182
#     13577
#     27042
#     40562
#     52857
#     65630
#     76932
#     89052
#     103982
#     120645
#     136332
#     149975
#     165380
#     178187
# 
# Disc length: 2542
# 
# Revision: 1
# Processed by: cddbd v1.5.2PL0 Copyright (c) Steve Scherf et al.
# Submitted via: fre:ac v1.0.31
# 
DISCID=be09ec0e
DTITLE=Roots of Rhythm - Memphis Soul
DYEAR=0
DGENRE=R&B
TTITLE0=King Curtis/Memphis Soul Stew
TTITLE1=Don Covay/See Saw
TTITLE2=Wilson Pickett/634-5789
TTITLE3=Otis Redding/[Sittin' on] The Dock of The Bay
TTITLE4=Johnnie Taylor/Who's making Love
TTITLE5=Rufus Thomas/Walking The Dog
TTITLE6=Sam and Dave/You Don't Know Like I Know
TTITLE7=Booker T. and The MG's/Time Is Tight
TTITLE8=Al Green/Let's Stay Together
TTITLE9=Luther Ingram/[If Loving You Is Wrong] I Don't Want To Be Right
TTITLE10=Bobby Bland/Farther Up The Road
TTITLE11=The Staple Singers/If You're Ready [Come Go With Me]
TTITLE12=B.B. King/Every Day I Have The Blues
TTITLE13=Albert King/Born Under A Bad Sign
EXTD=Memphis Soul - Mention the word 'soul,' and one of 6the first placesthat comes to mind is Memphis. Historically a musical melting pot, by 1900 the town's famousBeale Streethad already becomean entertainment center lined with music halls, featuring ja
EXTD=zz, blues, and minstrel shows. By the 1950's Memphis was producing famous locals like B.B.King, who sings the original version of his classic "Every day I Have The Blues" in this volume. From there,Memphis went on to become a major center of the 60's
EXTD=soul, introducing such greats as Rufus Thomas ("Walking The Dog") and Sam and Dave ("You Don't Kown Like I Know"). Legendary Stax Records is now gone, and Sun Studios is merely a museum, but the music, of course, is immortal. Just as important, it's a
EXTD=heck of a lot of fun to listen to.
EXTT0=
EXTT1=
EXTT2=
EXTT3=
EXTT4=
EXTT5=
EXTT6=
EXTT7=
EXTT8=
EXTT9=
EXTT10=
EXTT11=
EXTT12=
EXTT13=
PLAYORDER=
